<svg xmlns="http://www.w3.org/2000/svg"
    xmlns:xlink="http://www.w3.org/1999/xlink" viewBox="0 0 396 81" data-background-color="#ffffff" preserveAspectRatio="xMidYMid meet" height="409" width="2000">
    <g id="tight-bounds" transform="matrix(1,0,0,1,0.2400000000000091,0.0025338645418457872)">
        <svg viewBox="0 0 395.52 80.99493227091632" height="80.99493227091632" width="395.52">
            <g>
                <svg viewBox="0 0 395.52 80.99493227091632" height="80.99493227091632" width="395.52">
                    <g>
                        <svg viewBox="0 0 395.52 80.99493227091632" height="80.99493227091632" width="395.52">
                            <g id="textblocktransform">
                                <svg viewBox="0 0 395.52 80.99493227091632" height="80.99493227091632" width="395.52" id="textblock">
                                    <g>
                                        <svg viewBox="0 0 395.52 80.99493227091632" height="80.99493227091632" width="395.52">
                                            <g transform="matrix(1,0,0,1,0,0)">
                                                <svg width="395.52" viewBox="0.66 -36.18 183.82 37.64" height="80.99493227091632" data-palette-color="#1976d2">
                                                    <path d="M26.25-12.99L26.25-12.99Q26.25-9.64 25.09-7.14 23.93-4.64 21.91-2.98 19.9-1.32 17.2-0.49 14.5 0.34 11.4 0.34L11.4 0.34Q10.21 0.34 8.78 0.02 7.35-0.29 5.88-0.77 4.42-1.25 3.06-1.79 1.71-2.34 0.66-2.83L0.66-2.83 1.73-12.89Q3.81-11.65 6.34-11 8.86-10.35 11.3-10.35L11.3-10.35Q11.77-10.35 12.43-10.39 13.09-10.42 13.68-10.61 14.28-10.79 14.7-11.16 15.11-11.52 15.11-12.21L15.11-12.21Q15.11-12.67 14.82-13 14.53-13.33 14.06-13.54 13.6-13.75 13.01-13.85 12.43-13.96 11.87-14.01 11.3-14.06 10.82-14.06 10.33-14.06 10.03-14.06L10.03-14.06Q7.93-14.06 6.21-14.79 4.49-15.53 3.26-16.83 2.03-18.14 1.34-19.93 0.66-21.73 0.66-23.83L0.66-23.83Q0.66-26.71 1.82-28.99 2.98-31.27 4.92-32.87 6.86-34.47 9.38-35.33 11.89-36.18 14.58-36.18L14.58-36.18Q15.77-36.18 17.04-36.1 18.31-36.01 19.57-35.79 20.83-35.57 22.02-35.23 23.22-34.89 24.29-34.38L24.29-34.38 23.36-24.46Q21.7-25.02 19.89-25.4 18.07-25.78 16.33-25.78L16.33-25.78Q16.02-25.78 15.52-25.77 15.01-25.76 14.47-25.7 13.92-25.63 13.35-25.51 12.79-25.39 12.35-25.18 11.91-24.98 11.65-24.63 11.38-24.29 11.4-23.83L11.4-23.83Q11.43-23.29 11.8-22.96 12.18-22.63 12.78-22.45 13.38-22.27 14.1-22.19 14.82-22.12 15.53-22.11 16.24-22.09 16.85-22.11 17.46-22.12 17.85-22.07L17.85-22.07Q19.8-21.95 21.36-21.24 22.92-20.53 24.01-19.36 25.1-18.19 25.67-16.56 26.25-14.94 26.25-12.99ZM46.29-33.89L58.01-33.06 44.58-14.31 43.94 0.98 32.37 0.98 32.66-14.21 25.68-32.32 38.13-33.89 40.09-23.34 46.29-33.89ZM78.44-13.92L78.44-13.92 77.41-3.08 56.86-1.46Q57-9.99 57.18-18.41 57.37-26.83 57.64-35.35L57.64-35.35 70.33-35.35Q69.77-30 69.26-24.67 68.75-19.34 68.53-13.92L68.53-13.92Q69.67-13.87 70.8-13.87 71.92-13.87 73.07-13.87L73.07-13.87Q74.43-13.87 75.75-13.89 77.07-13.92 78.44-13.92ZM100.85-34.96L110.37-2.1 98.26-0.54 96.79-6.05 91.23-6.05 90.01-0.54 77.56-1.76 87.27-34.28 100.85-34.96ZM92.25-13.53L95.92-13.53 94.06-22.02 92.25-13.53ZM139.3-8.69L139.3-8.69Q139.3-6.67 138.55-5.2 137.81-3.74 136.56-2.71 135.32-1.68 133.69-1.04 132.07-0.39 130.31-0.02 128.55 0.34 126.78 0.46 125.01 0.59 123.48 0.59L123.48 0.59Q121.96 0.59 120.34 0.48 118.72 0.37 117.1 0.1 115.49-0.17 113.93-0.62 112.37-1.07 110.98-1.76L110.98-1.76 110.93-33.2Q112.29-33.76 113.83-34.22 115.37-34.67 116.97-34.97 118.57-35.28 120.16-35.44 121.74-35.6 123.23-35.6L123.23-35.6Q124.97-35.6 126.74-35.38 128.51-35.16 130.14-34.64 131.78-34.13 133.19-33.31 134.61-32.5 135.67-31.3 136.73-30.1 137.33-28.52 137.93-26.93 137.93-24.85L137.93-24.85Q137.93-23.49 137.54-22.29 137.15-21.09 136.42-20.14 135.68-19.19 134.63-18.52 133.58-17.85 132.27-17.53L132.27-17.53Q133.85-17.11 135.16-16.31 136.46-15.5 137.38-14.36 138.3-13.21 138.8-11.77 139.3-10.33 139.3-8.69ZM126.89-22.61L126.89-22.61Q126.89-23.32 126.6-23.82 126.31-24.32 125.88-24.63 125.45-24.95 124.95-25.1 124.45-25.24 124.06-25.24L124.06-25.24Q123.57-25.24 123.11-25.1 122.65-24.95 122.21-24.76L122.21-24.76 122.06-19.34Q122.62-19.34 123.45-19.43 124.28-19.53 125.05-19.86 125.82-20.19 126.36-20.84 126.89-21.48 126.89-22.61ZM123.43-14.65L123.43-14.65Q122.72-14.65 122.06-14.5L122.06-14.5 121.96-8.94Q122.33-8.86 122.68-8.8 123.04-8.74 123.38-8.74L123.38-8.74Q123.89-8.74 124.5-8.85 125.11-8.96 125.65-9.29 126.19-9.62 126.54-10.18 126.89-10.74 126.89-11.67L126.89-11.67Q126.89-12.6 126.54-13.18 126.19-13.77 125.67-14.1 125.16-14.43 124.55-14.54 123.94-14.65 123.43-14.65ZM159.24-35.94L171.55-34.96 159.78-18.7 169.69-1.42 158.36 0.59 150.94-9.96 150.55 1.07 140.39 1.46 141.17-35.94 152.55-35.3 151.67-24.27 159.24-35.94ZM171.49-33.69L184.48-34.38 181.8-1.12 171.49-0.59 171.49-33.69Z" opacity="1" transform="matrix(1,0,0,1,0,0)" fill="#1976d2" class="wordmark-text-0" data-fill-palette-color="primary" id="text-0"/>
                                                </svg>
                                            </g>
                                        </svg>
                                    </g>
                                </svg>
                            </g>
                        </svg>
                    </g>
                    <g/>
                </svg>
            </g>
            <defs/>
        </svg>
        <rect width="395.52" height="80.99493227091632" fill="none" stroke="none" visibility="hidden"/>
    </g>
</svg>